# xmcd CD database file
#
# Track frame offsets:
#	150
#	5400
#	24061
#	43198
#	65799
#	85661
#	103675
#	121485
#	141660
#	162815
#	183316
#	205449
#	221618
#	242328
#	260495
#
# Disc length: 3714 seconds
#
# Revision: 2
# Processed by: cddbd v1.4b41PL1 Copyright (c) Steve Scherf et al.
# Submitted via: Feurio! 1.60 - http://www.feurio.com
#
DISCID=d20e800f,d50e800f
DTITLE=Biagio Antonacci - Tra le mie Canzoni
DYEAR=1900
DGENRE=
TTITLE0=Guardami
TTITLE1=Ti ricordi perchè
TTITLE2=Le Cose Che Hai Amato Di Più
TTITLE3=Danza sul mio petto
TTITLE4=In una stanza quasi rosa
TTITLE5=C'è Ancora Qualcuno
TTITLE6=non so più a chi credere
TTITLE7=Liberatemi
TTITLE8=Se io, se lei
TTITLE9=Alessandra ( Live)
TTITLE10=Così presto no
TTITLE11=Si incomincia questa sera
TTITLE12=Se e' vero che ci sei
TTITLE13=Quanto tempo e ancora
TTITLE14=Iris
EXTD=
EXTT0=
EXTT1=
EXTT2=
EXTT3=
EXTT4=
EXTT5=
EXTT6=
EXTT7=
EXTT8=
EXTT9=
EXTT10=
EXTT11=
EXTT12=
EXTT13=
EXTT14=
PLAYORDER=
